# xmcd CD database file
#
# Track frame offsets:
#	182
#	11485
#	21927
#	32587
#	45787
#	59977
#	72970
#	84512
#	94972
#	107615
#	122245
#	135212
#	146977
#	169345
#	182252
#	196987
#	210227
#	236625
#	251665
#	264490
#	277345
#	290250
#	310277
#	323255
#	333760
#
# Disc length: 4592 seconds
#
# Revision: 0
# Processed by: cddbd v1.4PL0 Copyright (c) Steve Scherf et al.
# Submitted via: CDex 1.40PlusFr
#
DISCID=6311ee19
DTITLE=Chess Various Artists - The Chess EP Collection
DYEAR=1993
DGENRE=Blues
TTITLE0=Tommy Tucker - LONG TALL SHORTY (Covay Abramson
TTITLE1=Dale Hawkins - SUSIE Q (Hawkins - Lewis - Broadwater)
TTITLE2=Clarence 'Frogman' Henri - AIN'T GOT NO HOME (Henry)
TTITLE3=Fontella Bass - RESCUE ME (Smith - Miner)
TTITLE4=Bo Diddley - YOU ALL GREEN (McDaniel)
TTITLE5=Little Walter - I GOT TO FIND MY BABY (Jacobs)
TTITLE6=Don and Bob - GOOD MORNING LITTLE SCHOOLGIRL (Love Level)
TTITLE7=Larry Williams - OH BABY (Bookman)
TTITLE8=Jimmy McCracklin - THE WALK (Mc Cracklin Garlic)
TTITLE9=Tommy Tucker - I DON'T WANT `CHA (Higgenbotham)
TTITLE10=Jimmy Witherspoon - WHEN THE LIGHTS GO OUT (Dixon)
TTITLE11=Tony Clarke - THE ENTERTAINER (Clarke)
TTITLE12=Billy Stewart - SUMMERTIME (Gershwln - Heyward)
TTITLE13=Mitty Collier - I HAD A TALK WITH MY MAN (Cleveland)
TTITLE14=Billy Stewart - SITTING IN THE PARK (Stewart)
TTITLE15=Little Milton - WHO'S CHEATING WHO (Smith - Davis - Turner)
TTITLE16=Ramsey Lewis Trio - THE `IN' CROWD (Page)
TTITLE17=Buddy Guy - LEAVE MY GIRL ALONE (Guy)
TTITLE18=Tommy Tucker - HI-HEEL SNEAKERS (Higgenbotham)
TTITLE19=Sugar Pie DeSanto - SOULFUL DRESS (McAllister - Vail)
TTITLE20=Willie Dixon - CRAZY FOR MY BABY (Dixon)
TTITLE21=Bo Diddley - I CAN TELL (Smith - McDaniel)
TTITLE22=Howlin' Wolf - YOU GONNA WRECK MY LIFE (Burnett)
TTITLE23=Muddy Waters - MESSIN' WITH THE MAN (Morganfield)
TTITLE24=Chuck Berry - THE PROMISED LAND (Berry)
EXTD=YEAR: 1993 ID3G: 0
EXTT0=
EXTT1=
EXTT2=
EXTT3=
EXTT4=
EXTT5=
EXTT6=
EXTT7=
EXTT8=
EXTT9=
EXTT10=
EXTT11=
EXTT12=
EXTT13=
EXTT14=
EXTT15=
EXTT16=
EXTT17=
EXTT18=
EXTT19=
EXTT20=
EXTT21=
EXTT22=
EXTT23=
EXTT24=
PLAYORDER=
